<svg width="200" height="200" viewBox="0 0 200 200" fill="none" xmlns="http://www.w3.org/2000/svg">
<path d="M77.3514 132.357C108.635 126.768 142.612 112.702 155.25 107.129C131.01 123.849 91.2167 136.587 91.2167 136.587L77.3514 132.357ZM144.617 65.6227C88.9006 94.3845 16.1369 98.9119 16.1369 98.9119L28.6107 132.201C92.6427 135.185 167.892 94.3845 167.892 94.3845L144.617 65.6227Z" fill="#8FBC00"/>
<path d="M156.652 135.215L154.424 178.873L144.902 178.564L147.84 135.252L156.652 135.215ZM169.231 179C171.612 179 173.676 176.887 174.201 173.912L175.598 165.989C176.178 162.702 178.584 160.49 181.2 160.836L193.365 162.448C196.582 162.875 199.38 159.642 199.38 155.499C199.38 151.323 196.539 148.079 193.3 148.559L181.747 150.27C178.96 150.683 176.42 148.185 176.011 144.629L175.555 140.664C175.187 137.461 173.042 135.089 170.515 135.089H160.491L158.398 179H169.231Z" fill="#005675"/>
<path d="M16.1369 98.912C16.1369 98.912 7.85488 120.472 2 135.397C23.4651 150.093 53.2477 159.832 79.6933 166.114C49.7263 161.615 16.1369 153.838 16.1369 153.838C16.1369 153.838 76.7299 182.235 140.459 176.409L143.369 138.06C143.369 138.06 53.974 133.266 16.1369 98.912Z" fill="#26CBFF"/>
<path d="M167.892 94.3846C167.892 94.3846 62.7125 98.5302 5.8785 38.0313C-1.78717 30.1768 6.02912 17.6995 13.7594 27.7065C40.3981 62.1907 67.6868 71.1334 69.9825 62.1907C71.1773 57.5364 58.9099 55.2136 48.039 50.6172C37.3878 46.1137 28.1338 39.3493 28.7761 33.5785C29.3697 28.2459 36.953 31.3774 41.4025 36.703C46.5083 42.8144 52.8636 49.9742 55.1767 44.974C59.7681 35.0488 35.8067 31.1891 29.4935 20.345C25.3148 13.1671 31.0449 6.05026 37.5814 12.5633C55.6187 30.5359 77.2144 41.6597 100.472 48.4277C89.4409 43.6324 77.8334 37.3095 68.2971 29.2123C95.725 41.7745 116.301 52.0989 167.892 57.9712C167.492 68.738 167.892 94.3846 167.892 94.3846ZM71.2513 83.8618C40.4488 73.2733 21.2875 55.9936 17.6251 64.4444C13.9628 72.8952 54.5863 81.3342 71.2513 83.8618Z" fill="#FF9344"/>
</svg>
